# xmcd
#
# Track frame offsets: 
#        150
#        8558
#        29228
#        49786
#        68822
#        92474
#        111500
#        128944
#        146187
#        160452
#        183688
#        202482
#        212061
#        232167
#        254459
#
# Disc length: 3620 seconds
#
# Revision: 0
# Processed by: cddbd v1.5.2PL0 Copyright (c) Steve Scherf et al.
# Submitted via: ExactAudioCopyFreeDBPlugin 1.0
#
DISCID=f10e220f
DTITLE=Alicia Keys - As I Am
DYEAR=2007
DGENRE=Hip Hop
TTITLE0=As I Am (Intro)
TTITLE1=Go Ahead
TTITLE2=Superwoman
TTITLE3=No One
TTITLE4=Like You'll Never See Me Again
TTITLE5=Lesson Learned (Feat. John Mayer)
TTITLE6=Wreckless Love
TTITLE7=The Thing About Love
TTITLE8=Teenage Love Affair
TTITLE9=I Need You
TTITLE10=Where Do We Go From Here
TTITLE11=Prelude To A Kiss
TTITLE12=Tell You Something (Nana's Reprise)
TTITLE13=Sure Looks Good To Me
TTITLE14=Waiting For Your Love
EXTD=Info URL: https://www.amazon.co.uk/gp/product/B000WW286K\nBarcode
EXTD=: 886971905229\nRelease date: 2007-11-19\nRelease country: GB\nRe
EXTD=lease label: J Records\nRelease catalog#: 88697190522\n
EXTT0=
EXTT1=
EXTT2=
EXTT3=
EXTT4=
EXTT5=
EXTT6=
EXTT7=
EXTT8=
EXTT9=
EXTT10=
EXTT11=
EXTT12=
EXTT13=
EXTT14=
PLAYORDER=
